<svg xmlns="http://www.w3.org/2000/svg" width="31.874" height="36.427" viewBox="0 0 31.874 36.427">
  <path id="discord" d="M29.14,0a3.743,3.743,0,0,1,3.734,3.752V36.427l-3.916-3.461-2.2-2.04-2.331-2.167.965,3.369H4.734A3.743,3.743,0,0,1,1,28.377V3.752A3.743,3.743,0,0,1,4.734,0H29.14ZM22.11,23.787a6.658,6.658,0,0,0,5.573-2.768A24.391,24.391,0,0,0,25.06,10.4a9.007,9.007,0,0,0-5.118-1.912l-.255.291a12.122,12.122,0,0,1,4.535,2.313A14.847,14.847,0,0,0,18.74,9.344a15.411,15.411,0,0,0-3.679.036l-.31.036a13.678,13.678,0,0,0-4.134,1.147c-.674.31-1.075.528-1.075.528a12.288,12.288,0,0,1,4.79-2.386l-.182-.219A9.007,9.007,0,0,0,9.032,10.4,24.391,24.391,0,0,0,6.409,21.018a6.6,6.6,0,0,0,5.555,2.768s.674-.82,1.22-1.512A5.665,5.665,0,0,1,10,20.126l.51.31.073.055.071.041.021.009.071.041a10.674,10.674,0,0,0,1.33.619,15.289,15.289,0,0,0,2.677.783A12.759,12.759,0,0,0,19.469,22a11.988,11.988,0,0,0,2.641-.783A10.423,10.423,0,0,0,24.2,20.144a5.747,5.747,0,0,1-3.3,2.167c.546.692,1.2,1.475,1.2,1.475ZM13.64,15.281a2.029,2.029,0,0,0,0,4.043A1.94,1.94,0,0,0,15.5,17.3,1.929,1.929,0,0,0,13.64,15.281Zm6.648,0A2.029,2.029,0,1,0,22.146,17.3,1.94,1.94,0,0,0,20.288,15.281Z" transform="translate(-1)" fill="#57c1e4" fill-rule="evenodd"/>
</svg>
