<svg id="instagram" xmlns="http://www.w3.org/2000/svg" width="31.251" height="31.25" viewBox="0 0 31.251 31.25">
  <path id="Exclusão_4" data-name="Exclusão 4" d="M-1535.749-4013.125c-4.207,0-4.764-.018-6.443-.093a11.445,11.445,0,0,1-3.792-.728,8.007,8.007,0,0,1-4.568-4.57,11.483,11.483,0,0,1-.728-3.79c-.076-1.706-.094-2.267-.094-6.444s.018-4.738.094-6.443a11.461,11.461,0,0,1,.728-3.791,8.005,8.005,0,0,1,4.568-4.569,11.454,11.454,0,0,1,3.792-.729c1.708-.075,2.27-.093,6.443-.093s4.735.018,6.443.093a11.439,11.439,0,0,1,3.79.729,8.007,8.007,0,0,1,4.571,4.569,11.505,11.505,0,0,1,.728,3.791c.076,1.689.093,2.248.093,6.443s-.018,4.755-.093,6.444a11.5,11.5,0,0,1-.728,3.79,8.006,8.006,0,0,1-4.571,4.57,11.419,11.419,0,0,1-3.79.728C-1530.986-4013.143-1531.542-4013.125-1535.749-4013.125Zm0-28.437c-4.12,0-4.622.016-6.313.093a8.612,8.612,0,0,0-2.9.538,5.185,5.185,0,0,0-2.967,2.969,8.58,8.58,0,0,0-.536,2.9c-.076,1.654-.094,2.2-.094,6.312s.018,4.659.094,6.313a8.6,8.6,0,0,0,.536,2.9,5.183,5.183,0,0,0,2.97,2.966,8.614,8.614,0,0,0,2.9.538c1.691.077,2.192.093,6.313.093s4.622-.016,6.313-.093a8.611,8.611,0,0,0,2.9-.538,5.18,5.18,0,0,0,2.966-2.969,8.626,8.626,0,0,0,.537-2.9c.077-1.685.093-2.185.093-6.312s-.016-4.628-.093-6.312a8.605,8.605,0,0,0-.537-2.9,5.181,5.181,0,0,0-2.969-2.966,8.613,8.613,0,0,0-2.9-.538C-1531.127-4041.546-1531.629-4041.562-1535.749-4041.562Zm0,20.837a8.034,8.034,0,0,1-8.026-8.025,8.034,8.034,0,0,1,8.026-8.024,8.034,8.034,0,0,1,8.026,8.024A8.034,8.034,0,0,1-1535.749-4020.726Zm0-13.235a5.215,5.215,0,0,0-5.209,5.21,5.215,5.215,0,0,0,5.209,5.209,5.215,5.215,0,0,0,5.209-5.209A5.215,5.215,0,0,0-1535.749-4033.96Zm8.341-1.256a1.877,1.877,0,0,1-1.876-1.875,1.878,1.878,0,0,1,1.876-1.876,1.877,1.877,0,0,1,1.874,1.876A1.876,1.876,0,0,1-1527.408-4035.216Z" transform="translate(1551.375 4044.375)" fill="#57c1e4"/>
</svg>
