<svg xmlns="http://www.w3.org/2000/svg" width="30.841" height="30.841" viewBox="0 0 30.841 30.841">
  <path id="linkedin" d="M28.051,0H2.79A2.79,2.79,0,0,0,0,2.79V28.051a2.79,2.79,0,0,0,2.79,2.79H28.051a2.79,2.79,0,0,0,2.79-2.79V2.79A2.79,2.79,0,0,0,28.051,0ZM9.544,26.63a.812.812,0,0,1-.812.812H5.276a.812.812,0,0,1-.812-.812V12.143a.812.812,0,0,1,.812-.812H8.732a.812.812,0,0,1,.812.812ZM7,9.965a3.283,3.283,0,1,1,3.283-3.283A3.283,3.283,0,0,1,7,9.965ZM27.6,26.7a.747.747,0,0,1-.746.746H23.15A.747.747,0,0,1,22.4,26.7V19.9c0-1.014.3-4.442-2.649-4.442-2.286,0-2.749,2.347-2.842,3.4V26.7a.746.746,0,0,1-.746.746H12.578a.747.747,0,0,1-.746-.746V12.078a.747.747,0,0,1,.746-.746h3.587a.747.747,0,0,1,.746.746v1.264c.847-1.272,2.107-2.254,4.789-2.254,5.938,0,5.9,5.548,5.9,8.6V26.7Z" fill="#57c1e4"/>
</svg>
