<svg xmlns="http://www.w3.org/2000/svg" width="36.428" height="30.356" viewBox="0 0 36.428 30.356">
  <path id="telegram" d="M27.9,33.02a1.8,1.8,0,0,0,1.68.22,1.761,1.761,0,0,0,1.1-1.275C32,25.767,35.2,10.078,36.4,4.439a1.185,1.185,0,0,0-.395-1.15,1.215,1.215,0,0,0-1.21-.212C28.433,5.432,8.834,12.785.823,15.75A1.248,1.248,0,0,0,.9,18.122c3.593,1.075,8.308,2.57,8.308,2.57s2.2,6.656,3.353,10.04a1.33,1.33,0,0,0,.915.874,1.315,1.315,0,0,0,1.231-.314l4.7-4.436s5.422,3.975,8.5,6.165ZM11.192,19.851l2.548,8.406.566-5.323L29.766,8.991a.421.421,0,0,0,.05-.572.431.431,0,0,0-.571-.1L11.192,19.851Z" transform="translate(0 -3)" fill="#57c1e4" fill-rule="evenodd"/>
</svg>
