<svg id="twitter" xmlns="http://www.w3.org/2000/svg" width="35.1" height="28.533" viewBox="0 0 35.1 28.533">
  <path id="Exclusão_1" data-name="Exclusão 1" d="M46.536,20.3A14.4,14.4,0,0,1,42.4,21.437a7.221,7.221,0,0,0,3.164-3.986A14.417,14.417,0,0,1,40.99,19.2a7.206,7.206,0,0,0-12.27,6.569,20.443,20.443,0,0,1-14.842-7.521A7.21,7.21,0,0,0,16.1,27.855a7.171,7.171,0,0,1-3.259-.9q0,.045,0,.09a7.205,7.205,0,0,0,5.776,7.065,7.216,7.216,0,0,1-3.254.125A7.211,7.211,0,0,0,22.1,39.212,14.446,14.446,0,0,1,13.151,42.3a14.611,14.611,0,0,1-1.715-.075,20.383,20.383,0,0,0,11.031,3.234c13.248,0,20.488-10.971,20.488-20.488v-.933A14.632,14.632,0,0,0,46.536,20.3Z" transform="translate(-11.436 -16.922)" fill="#57c1e4"/>
</svg>
