<svg id="youtube" xmlns="http://www.w3.org/2000/svg" width="32.58" height="24.443" viewBox="0 0 32.58 24.443">
  <path id="Exclusão_2" data-name="Exclusão 2" d="M-1718.42-4023.337h0c-.084,0-8.486-.084-11.077-.348-.124-.025-.271-.043-.441-.065a4.67,4.67,0,0,1-3.152-1.42,7.842,7.842,0,0,1-1.293-3.448c0-.028-.326-2.86-.326-5.625v-2.636c0-2.763.323-5.6.326-5.624a7.869,7.869,0,0,1,1.293-3.452,4.348,4.348,0,0,1,3.06-1.45l.2-.022c4.507-.349,11.33-.353,11.4-.353h.015c.068,0,6.89,0,11.4.353.058.007.122.014.191.021h.014a4.355,4.355,0,0,1,3.06,1.448,7.856,7.856,0,0,1,1.293,3.452c0,.028.326,2.851.326,5.626v2.636a56.048,56.048,0,0,1-.326,5.625,7.864,7.864,0,0,1-1.293,3.448,4.369,4.369,0,0,1-3.054,1.45l-.211.024c-4.4.336-11.117.359-11.4.36Zm-4.068-18.331h0v12.221l10.185-6.11-10.185-6.11Z" transform="translate(1734.71 4047.779)" fill="#57c1e4"/>
</svg>
